<svg xmlns="http://www.w3.org/2000/svg" viewBox="0 0 1280 720" width="1280" height="720" data-pptx-page-role="content" font-family="Microsoft YaHei, Arial, sans-serif">
  <defs>
    <linearGradient id="goldGrad" x1="0" y1="0" x2="1" y2="0">
      <stop offset="0" stop-color="#F0B90B" />
      <stop offset="1" stop-color="#22D3EE" />
    </linearGradient>
    <linearGradient id="fieldGrad" x1="0" y1="0" x2="1" y2="1">
      <stop offset="0" stop-color="#0C1424" />
      <stop offset="1" stop-color="#070B14" />
    </linearGradient>
    <linearGradient id="scrim" x1="0" y1="0" x2="0" y2="1">
      <stop offset="0" stop-color="#070B14" stop-opacity="0" />
      <stop offset="1" stop-color="#070B14" stop-opacity="0.92" />
    </linearGradient>
    <filter id="glow" x="-60%" y="-60%" width="220%" height="220%">
      <feGaussianBlur stdDeviation="14" result="b" />
      <feMerge><feMergeNode in="b" /><feMergeNode in="SourceGraphic" /></feMerge>
    </filter>
    <filter id="softGlow" x="-40%" y="-40%" width="180%" height="180%">
      <feGaussianBlur stdDeviation="6" result="b" />
      <feMerge><feMergeNode in="b" /><feMergeNode in="SourceGraphic" /></feMerge>
    </filter>
    <marker id="arrowGold" viewBox="0 0 10 10" refX="9" refY="5" markerWidth="7" markerHeight="7" orient="auto">
      <path d="M0 0 L10 5 L0 10" fill="none" stroke="#F0B90B" stroke-width="2" />
    </marker>
    <marker id="arrowMut" viewBox="0 0 10 10" refX="9" refY="5" markerWidth="7" markerHeight="7" orient="auto">
      <path d="M0 0 L10 5 L0 10" fill="none" stroke="#8A99B8" stroke-width="2" />
    </marker>
    <marker id="arrowRed" viewBox="0 0 10 10" refX="9" refY="5" markerWidth="7" markerHeight="7" orient="auto">
      <path d="M0 0 L10 5 L0 10" fill="none" stroke="#F0616D" stroke-width="2" />
    </marker>
  </defs>
  <rect id="bg" data-pptx-role="background" x="0" y="0" width="1280" height="720" fill="url(#fieldGrad)" />
  <g id="grid" data-pptx-role="decoration" data-pptx-bounds="0 0 1280 720" stroke="#22D3EE" stroke-width="1" stroke-opacity="0.055">
    <line x1="0" y1="0" x2="0" y2="720" />
    <line x1="80" y1="0" x2="80" y2="720" />
    <line x1="160" y1="0" x2="160" y2="720" />
    <line x1="240" y1="0" x2="240" y2="720" />
    <line x1="320" y1="0" x2="320" y2="720" />
    <line x1="400" y1="0" x2="400" y2="720" />
    <line x1="480" y1="0" x2="480" y2="720" />
    <line x1="560" y1="0" x2="560" y2="720" />
    <line x1="640" y1="0" x2="640" y2="720" />
    <line x1="720" y1="0" x2="720" y2="720" />
    <line x1="800" y1="0" x2="800" y2="720" />
    <line x1="880" y1="0" x2="880" y2="720" />
    <line x1="960" y1="0" x2="960" y2="720" />
    <line x1="1040" y1="0" x2="1040" y2="720" />
    <line x1="1120" y1="0" x2="1120" y2="720" />
    <line x1="1200" y1="0" x2="1200" y2="720" />
    <line x1="1280" y1="0" x2="1280" y2="720" />
    <line x1="0" y1="0" x2="1280" y2="0" />
    <line x1="0" y1="80" x2="1280" y2="80" />
    <line x1="0" y1="160" x2="1280" y2="160" />
    <line x1="0" y1="240" x2="1280" y2="240" />
    <line x1="0" y1="320" x2="1280" y2="320" />
    <line x1="0" y1="400" x2="1280" y2="400" />
    <line x1="0" y1="480" x2="1280" y2="480" />
    <line x1="0" y1="560" x2="1280" y2="560" />
    <line x1="0" y1="640" x2="1280" y2="640" />
    <line x1="0" y1="720" x2="1280" y2="720" />
  </g>
  <g id="pagehead" data-pptx-bounds="72 40 900 96">
  <text id="kicker" x="72" y="62" font-family="Consolas, Microsoft YaHei, monospace" font-size="15" letter-spacing="3" fill="#F0B90B">ARCHITECTURE</text>
  <text id="ptitle" x="72" y="104" font-size="40" font-weight="bold" fill="#EAF0FB">架构:唯一的写入路径</text>
  <rect id="trule" x="72" y="124" width="120" height="4" fill="url(#goldGrad)" />
  </g>
  <g id="flow" data-pptx-bounds="72 180 1136 250">
    <rect x="96" y="228" width="230" height="120" rx="10" fill="#111A2E" stroke="#22304C" stroke-width="1" />
    <text x="211" y="278" text-anchor="middle" font-size="24" font-weight="bold" fill="#EAF0FB">你的 AI 代理</text>
    <text x="211" y="310" text-anchor="middle" font-size="16" fill="#8A99B8">任意 LLM · 无凭证</text>

    <rect x="470" y="204" width="290" height="168" rx="12" fill="#F0B90B" fill-opacity="0.10" stroke="#F0B90B" stroke-width="2" />
    <text x="615" y="252" text-anchor="middle" font-size="28" font-weight="bold" fill="#F0B90B">AEGIS</text>
    <text x="615" y="284" text-anchor="middle" font-size="16" fill="#EAF0FB">23 条确定性规则</text>
    <text x="615" y="312" text-anchor="middle" font-size="16" fill="#EAF0FB">纯函数 · 无 LLM</text>
    <text x="615" y="344" text-anchor="middle" font-family="Consolas, Microsoft YaHei, monospace" font-size="14" fill="#8A99B8">判定即发送</text>

    <rect x="904" y="228" width="230" height="120" rx="10" fill="#111A2E" stroke="#22D3EE" stroke-width="1" stroke-opacity="0.5" />
    <text x="1019" y="278" text-anchor="middle" font-size="24" font-weight="bold" fill="#22D3EE">币安 Agent OS</text>
    <text x="1019" y="310" text-anchor="middle" font-size="16" fill="#8A99B8">binance-cli · MCP</text>

    <line x1="330" y1="288" x2="462" y2="288" stroke="#F0B90B" stroke-width="2.5" marker-end="url(#arrowGold)" />
    <line x1="764" y1="288" x2="896" y2="288" stroke="#F0B90B" stroke-width="2.5" marker-end="url(#arrowGold)" />
    <text x="396" y="274" text-anchor="middle" font-family="Consolas, Microsoft YaHei, monospace" font-size="13" fill="#8A99B8">提议</text>
    <text x="830" y="274" text-anchor="middle" font-family="Consolas, Microsoft YaHei, monospace" font-size="13" fill="#8A99B8">放行</text>
  </g>
  <g id="verdicts" data-pptx-bounds="72 448 1136 152">
    <rect x="96" y="448" width="352" height="152" rx="8" fill="#0D1424" stroke="#34D399" stroke-width="1" stroke-opacity="0.45" />
    <text x="128" y="490" font-size="21" font-weight="bold" fill="#34D399">ALLOW · 放行</text>
    <text x="128" y="526" font-size="16" fill="#8A99B8">Aegis 亲自下单<tspan x="128" dy="30">按真实成交结算计数器</tspan></text>
    <text x="128" y="586" font-family="Consolas, Microsoft YaHei, monospace" font-size="14" fill="#34D399">exit 0</text>

    <rect x="464" y="448" width="352" height="152" rx="8" fill="#0D1424" stroke="#F0B90B" stroke-width="1" stroke-opacity="0.45" />
    <text x="496" y="490" font-size="21" font-weight="bold" fill="#F0B90B">REVIEW · 待人工确认</text>
    <text x="496" y="526" font-size="16" fill="#8A99B8">生成单次有效票据<tspan x="496" dy="30">兑付时重新评估</tspan></text>
    <text x="496" y="586" font-family="Consolas, Microsoft YaHei, monospace" font-size="14" fill="#F0B90B">exit 3 · &amp;&amp; 在此停止</text>

    <rect x="832" y="448" width="352" height="152" rx="8" fill="#0D1424" stroke="#F0616D" stroke-width="1" stroke-opacity="0.45" />
    <text x="864" y="490" font-size="21" font-weight="bold" fill="#F0616D">DENY · 拒绝</text>
    <text x="864" y="526" font-size="16" fill="#8A99B8">什么都不会发出<tspan x="864" dy="30">原样转述拒绝理由</tspan></text>
    <text x="864" y="586" font-family="Consolas, Microsoft YaHei, monospace" font-size="14" fill="#F0616D">exit 1</text>
  </g>
  <g id="pagefoot" data-pptx-role="footer" data-pptx-bounds="72 650 1136 46">
  <line id="frule" x1="72" y1="662" x2="1208" y2="662" stroke="#22304C" stroke-width="1" />
  <text id="fbrand" x="72" y="688" font-family="Consolas, Microsoft YaHei, monospace" font-size="13" fill="#8A99B8">AEGIS · Binance Agent OS Mini Hackathon · Track A</text>
  <text id="fnum" data-pptx-role="page-number" x="1208" y="688" text-anchor="end" font-family="Consolas, Microsoft YaHei, monospace" font-size="13" fill="#F0B90B">04</text>
  </g>
</svg>
